<svg id="Layer_1" data-name="Layer 1" xmlns="http://www.w3.org/2000/svg" xmlns:xlink="http://www.w3.org/1999/xlink" width="153.36" height="259.73" viewBox="0 0 153.36 259.73">
  <defs>
    <style>
      .cls-1 {
        fill: url(#linear-gradient);
      }
    </style>
    <linearGradient id="linear-gradient" x1="6.33" y1="132.07" x2="142.44" y2="132.07" gradientUnits="userSpaceOnUse">
      <stop offset="0.11" stop-color="#d4145a"/>
      <stop offset="1"/>
    </linearGradient>
  </defs>
  <title>ALogo</title>
  <g id="BigA">
    <path id="BWA" d="M80.28,204.21H40.16L38.3,219a4.7,4.7,0,0,1-.34,1.45,30.47,30.47,0,0,0-1.35,8.37q0,5.79,7.52,9.82c2.66,1.4,4.32,2.85,5,4.35s1,4,1,7.4q0,6.6-.72,8c-.49.92-1.64,1.37-3.45,1.37H3.53c-2.36,0-3.53-2.46-3.53-7.4Q0,243.48,5.63,238q5.31-5,6.12-10.62L41.55,38a42.09,42.09,0,0,0,.81-7.57q0-5-7-8.85Q32.19,19.64,32.18,13c0-5.9.33-9.55,1-10.95S35.51,0,38.3,0H99.75a8,8,0,0,1,7.88,5.31q2.25,5.31,4.51,23.17,1,6.93,1.93,13.68L140.49,219q1.92,12.87,9.49,19.63a14.08,14.08,0,0,1,2.74,2.82c.42.7.64,2.81.64,6.35q0,8.22-1.12,10.06c-.75,1.24-2.36,1.85-4.82,1.85H76c-2.14,0-3.21-2-3.21-6.11,0-5.15.26-8.37.8-9.66s2.08-2.79,4.64-4.5q5.59-3.56,5.6-9T80.28,204.21ZM61,59.94,42.84,185.71H78.62Z"/>
  </g>
  <g id="LilA">
    <path id="CA" class="cls-1" d="M89.35,202H36.85l-4.27,26.14a3.47,3.47,0,0,1-.23,1,20.81,20.81,0,0,0-.93,5.74q0,4,5.15,6.73,2.74,1.44,3.4,3a14,14,0,0,1,.66,5.07c0,3-.17,4.84-.5,5.46s-1.11.94-2.36.94h-29c-1.62,0-2.42-1.69-2.42-5.08a13,13,0,0,1,3.86-9.81c2.42-2.28,3.82-4.71,7.19-23.28L53.1,35.09c-2.63,14,.26-4.7.26-6.18q0-3.42-4.76-6.06C47.12,22,46.39,20,46.39,17q0-6.08.66-7.5c.44-1,1.61-1.44,3.53-1.44H92.7a5.45,5.45,0,0,1,5.4,3.64q1.53,3.65,3.08,15.88c.45,3.17.89,6.29,1.33,9.38l31.11,191.21q1.32,8.84,6.5,13.46a9.65,9.65,0,0,1,1.88,1.93c.29.48.44,1.93.44,4.36q0,5.63-.77,6.89c-.51.85-1.62,1.27-3.3,1.27h-49q-2.2,0-2.2-4.19,0-5.29.55-6.62t3.18-3.09c2.56-1.62,3.84-3.69,3.84-6.19S91,211.43,89.35,202ZM61.1,43.09,38.69,189.34H88.21Z"/>
  </g>
</svg>
