<svg id="CLogo" xmlns="http://www.w3.org/2000/svg" width="157.88" height="185.67" viewBox="0 0 157.88 185.67">
  <defs>
    <style>
      .cls-1, .cls-2 {
        fill: #924fa3;
      }

      .cls-1 {
        stroke: #333335;
        stroke-miterlimit: 10;
        stroke-width: 3px;
      }
    </style>
  </defs>
  <title>CLogo</title>
  <polygon id="S2" class="cls-1" points="102.55 133.14 98.57 133.14 98.24 168.36 102.24 167.36 102.55 133.14"/>
  <polygon id="S1" class="cls-1" points="65.6 114.18 67.89 117.22 42.84 137.66 40.86 134.09 65.6 114.18"/>
  <g id="C">
    <path id="CType" class="cls-1" d="M75.8,32l2.14,2.48q-13,9-19.4,19.21a53,53,0,0,0-8.21,28.63q0,18.77,12.14,34.67,5.25-4.35,6.3-7.33t1-16.32V53.55l37.44-31.74q13.09,5.25,20.59,6.8a87.32,87.32,0,0,0,17.61,1.56h2l1.44,3.24-14.42,14Q120,45.82,101.72,36.57l.87,101.53,3.31.09a58,58,0,0,0,22.88-4.37q10.32-4.38,21.4-14.21l2.66,2.62q-8.13,11.4-16,17.72a61.16,61.16,0,0,1-18.83,10.11,67,67,0,0,1-21.85,3.78,61.18,61.18,0,0,1-30.28-7.91,56,56,0,0,1-22.25-22.67,62.82,62.82,0,0,1-8-30.41A61.7,61.7,0,0,1,47,57.11Q55.9,44.21,75.8,32Zm21.89,3.9L87.47,45V85.54q0,7.58-.79,10.06a18.77,18.77,0,0,1-4,7A154.06,154.06,0,0,1,64.76,119.9a53.53,53.53,0,0,0,15,12.12,55.91,55.91,0,0,0,18.79,5.64Z"/>
  </g>
  <path id="Moon" class="cls-1" d="M79,160.74l4.58,1.58a85,85,0,0,0,33.79,4q16.32-1.52,36-10.28l2.56,4.81q-16.32,12.24-30,17.56a89.62,89.62,0,0,1-30.67,5.72,98.09,98.09,0,0,1-32.1-4.37,89.8,89.8,0,0,1-38.72-24.33,81.69,81.69,0,0,1-21-41.25q-4.73-24,2.14-45.74Q14,41.68,37.07,23.86,55.13,9.9,88.2,1.76l1.89,4.4Q68,12.88,54.64,24.26a76.91,76.91,0,0,0-24,36.1q-8.23,26,1.71,53.47a71,71,0,0,0,10.59,21C55.23,151.47,71.64,158.24,79,160.74Z"/>
  <polygon class="cls-2" points="46.06 131.82 49.74 128.86 49.88 129.07 46.15 132 46.06 131.82"/>
  <polygon class="cls-2" points="46.47 132.76 50.5 129.43 49.65 129.1 46.78 131.38 46.47 132.76"/>
  <polygon class="cls-2" points="45.24 132.48 41.33 135.59 41.71 136.21 44.81 133.5 45.24 132.48"/>
  <polygon class="cls-2" points="45.49 133.54 41.09 137.18 40.79 136.66 45.24 133.23 45.49 133.54"/>
  <polygon class="cls-2" points="99.83 156.84 99.9 151.49 100.31 151.49 100.31 156.84 99.83 156.84"/>
  <polygon class="cls-2" points="100.83 156.33 100.88 151.11 100.08 151.91 100.17 156.15 100.83 156.33"/>
  <polygon class="cls-2" points="99.78 163.39 99.78 167.98 100.67 168.07 100.56 163.39 99.78 163.39"/>
  <polygon class="cls-2" points="100.76 163.52 100.76 167.78 100.47 167.8 100.47 163.83 100.76 163.52"/>
</svg>
