<svg id="QLogo" xmlns="http://www.w3.org/2000/svg" width="219.07" height="232.19" viewBox="0 0 219.07 232.19">
  <defs>
    <style>
      .cls-1 {
        fill: #00a000;
      }

      .cls-2 {
        fill: #0bd1c7;
      }

      .cls-3 {
        fill: #0a84e8;
      }
    </style>
  </defs>
  <title>QLogo</title>
  <path id="Green" class="cls-1" d="M24.49,12.21c-1.43-2.11-12.38.06-18.79,7.31C-1,27.15-.27,37.6.48,47.71,1.09,56,2,67.79,9.87,80.07c1.17,1.8,17.38,26.28,37.58,24,1.34-.15,13-1.46,15.66-9.4,1.42-4.16.2-9.61-3.13-12.52C56.27,78.91,52.41,81,45.37,79c-6.18-1.72-10.09-5.23-13.57-8.35C20.91,60.91,18,48.42,17.18,43.53s-2-12.1,1.05-19.83C21,16.69,25.52,13.74,24.49,12.21Z" transform="translate(0)"/>
  <path id="LBlue" class="cls-2" d="M61,119.13c6.43-1.59,24,1.09,33,7.69,18.65,13.64,30.3,20.71,32.7,23.53,12.1,14.22,19.81,30.82,31,38.41a20.71,20.71,0,0,0,7.1,3.16,22.79,22.79,0,0,0,14.6-2c2.15-1,10.39-4.87,12.62-13.42.26-1,2.15-8.18-1.57-11.83-3.41-3.35-8.79-1-14.21-1.19-11.81-.29-16.37-11.95-31.56-26.83a147.78,147.78,0,0,0-39.85-27.61c-12-5.49-24.39-8.33-29.2-12.63-.49-.44-2.47-2.3-4.73-2-2.06.29-3.35,2.25-4,3.15-1.93,2.93-1.76,6-1.57,9.47.16,3.13.28,4.88,1.57,5.92C68.69,114.47,60.13,119.34,61,119.13Z" transform="translate(0)"/>
  <path id="Blue" class="cls-3" d="M184.07,178.9c5.44,1.68,8,7.79,11.05,15,3.39,8,2.59,11.15,5.92,14.21,3.91,3.6,9.72,3.62,13.81,3.15a13.51,13.51,0,0,1-5.13,6.32c-4.71,3-10.15,1.6-15,.39a30.31,30.31,0,0,1-11.84-5.52c-4.81-3.77-3.86-5.61-9.47-10.66-5.08-4.56-7.51-4.53-8.28-7.49-1.28-4.84,3.91-9.86,4.73-10.65C170.24,183.28,177.15,176.77,184.07,178.9Z" transform="translate(0)"/>
  <g id="OQ">
    <path id="QType" d="M115.88,48.08Q104.32,59.65,99,67.09T87.73,88.45a90.82,90.82,0,0,0-6.53,21.28q-2.52,9.88-2.51,25.46,0,21.94,4.19,36.61t12.39,22.11A28.36,28.36,0,0,0,115,201.36q9.38,0,19.18-6.86a74.76,74.76,0,0,0,17.76-18,100,100,0,0,0,12.81-24.88,79.23,79.23,0,0,0,4.86-26.47q0-23-15.74-47.91Q148,67.18,148,63.49q0-6.87,7.54-13.74a101,101,0,0,1,19.6-14.57q11.06-6.36,17.42-6.37a19.81,19.81,0,0,1,7.79,1.76A16.24,16.24,0,0,1,206.68,35q5.35,5.54,8.87,20.36a135.39,135.39,0,0,1,3.52,31.41q0,39.54-16.16,72.95T159,212.67q-27.72,19.52-60,19.52a104,104,0,0,1-36.86-6.87q-18.26-6.87-29.65-18.43-19.26-19.26-19.27-50.42,0-18.09,7-38.37A185.68,185.68,0,0,1,39.57,78.65,203.07,203.07,0,0,1,68.05,43.56,147.7,147.7,0,0,1,101.3,18.43,163.75,163.75,0,0,1,134.81,5q17.92-5,31.49-5,19.09,0,19.1,5.86,0,2.35-4,7.21-7.38,6.87-12.82,9.71t-17.84,6.37q-13.4,4-19.43,7.29T115.88,48.08Z" transform="translate(0)"/>
  </g>
</svg>
