<svg id="SLogo" xmlns="http://www.w3.org/2000/svg" width="83.88" height="220.72" viewBox="0 0 83.88 220.72">
  <defs>
    <style>
      .cls-1 {
        fill: #eac613;
      }

      .cls-2 {
        fill: #ed7411;
      }

      .cls-3 {
        fill: #ea9d13;
      }
    </style>
  </defs>
  <title>SLogo</title>
  <g id="Main">
    <path id="YellowSFill" class="cls-1" d="M49.15,5.53C50.44,3.79,56.78,6,61,9.81S66.61,18.47,68.9,29c3.8,17.54,5.7,26.31,5.93,34.19,0,.45,0,.12,0,25.64v6.41H57.05q.12-9.43,0-19.23c-.36-27-.86-36.73-2-44.87-1.36-10-2-14.94-4-19.23C49.79,8.93,48.33,6.63,49.15,5.53Z"/>
    <polygon id="OrangeSFill" class="cls-2" points="3.72 123.04 23.47 125.18 27.42 210.64 15.57 206.37 9.64 199.96 5.69 150.82 3.72 123.04"/>
    <path id="Mix" class="cls-3" d="M23.47,9.81C19.87,8,14,13.41,11.62,16.21c-3.46,4.07-4.48,8.41-5.93,15-1.27,5.73-1.52,10.31-2,19.23-.5,9.84-.75,14.76,0,19.23A58.46,58.46,0,0,0,9.64,86.72a77.22,77.22,0,0,0,9.88,15c1.72,2.12,2,2.27,9.88,10.68,7.36,7.85,10.5,11.32,11.85,12.82C50.54,135.5,52,138,53.1,140.13c2.09,4.21,2.81,7.54,3.95,12.82C59.58,164.71,59.36,174,59,185c-.25,8.52-.41,12.86-2,17.09-2.58,7-6.95,11.64-5.93,12.82.53.61,2.09-.13,5.93-2.13,7-3.68,10.58-5.52,11.85-6.41,8.27-5.82,14.88-31.9,7.9-57.69C72,131,62.34,119,57.05,112.36,43.83,95.89,37.61,97.47,31.37,84.58,26,73.48,25.78,62.33,25.44,44,25.06,23.5,28,12,23.47,9.81Z"/>
    <path id="BlackS" d="M83.88,178.2q0,18.11-11.1,30.11-11.83,12.41-30.46,12.41T11.85,208.41C4,200.21,2,158.09,2,146.15V120.32H32.07v44.14c0,11.12,2.09,48.73,10.25,48.73Q54,213.19,54,196.51V164.57q0-20.13-10.53-31.33L11.85,99.47Q0,86.87,0,62.45V42.52Q0,24.42,11.47,12.21T41.56,0q18.63,0,30.1,12.21C79.3,20.34,83.13,62.5,83.13,74.56V100.4H53.23V56.26c0-11.12-3.89-48.73-11.67-48.73S30.09,13.09,30.09,24.21V52.89Q30.09,73,40.44,84L72,117.78Q83.88,130.6,83.88,155ZM69,184.91V160.3q0-22.78-10.9-34.58L25,89.91q-10-10.77-10-33.36v-22q0-13,5.07-20.95Q7.34,23.2,7.33,39.47V59.6q0,22.79,10.72,34.59L51.16,130q10.16,10.78,10.15,33.36v27.46q0,13-6.2,20.75Q69,202,69,184.91Zm-48.9,22.18c-3.38-5.29-3.1-44.32-3.1-53V127.84H9.31V149.2C9.31,160.06,11.6,200.71,20.12,207.09ZM68.27,92.87v-25c0-11.39-4.64-52.32-13.92-58.7,4.14,5.16,6.21,44.12,6.21,52.8V92.87Z"/>
  </g>
</svg>
