<svg id="TLogo" xmlns="http://www.w3.org/2000/svg" width="127.34" height="138.21" viewBox="0 0 127.34 138.21">
  <defs>
    <style>
      .cls-1 {
        fill: #bc42fc;
      }

      .cls-1, .cls-2 {
        stroke: #bc42fc;
        stroke-miterlimit: 10;
      }

      .cls-2 {
        fill: #424242;
      }
    </style>
  </defs>
  <title>TLogo</title>
  <polygon id="PurpleFillerT" class="cls-1" points="2.67 11.21 3.67 35.2 123.67 36.2 124.67 11.21 2.67 11.21"/>
  <g id="BigT">
    <path id="BTType" class="cls-2" d="M71.2,19.11V126.27q0,3.93,1.25,5.61t4.89,2.64v3.07H50v-3.07q3.64-1,4.89-2.59t1.25-5.66V19.11H11.82q-4,0-5.71,1.22c-1.12.81-2,2.45-2.54,4.92H.5V.5H3.57C4.15,3,5,4.59,6.11,5.41s3,1.23,5.71,1.23h103.7q4,0,5.71-1.23c1.12-.82,2-2.45,2.54-4.91h3.07V25.25h-3.07q-.85-3.7-2.54-4.92t-5.71-1.22Z"/>
  </g>
  <g id="LilT">
    <path id="STType" class="cls-2" d="M71.15,40.91v87.55c0,2.14.41,3.67,1.24,4.58s2.43,1.64,4.84,2.16v2.51H50.17V135.2c2.4-.52,4-1.23,4.84-2.12s1.23-2.43,1.23-4.62V40.91H12.37q-4,0-5.65,1t-2.52,4h-3V25.71h3a6.53,6.53,0,0,0,2.52,4q1.67,1,5.65,1H115q4,0,5.65-1c1.11-.67,1.94-2,2.51-4h3V45.93h-3c-.57-2-1.4-3.36-2.51-4s-3-1-5.65-1Z"/>
  </g>
</svg>
