<svg id="ULogo" xmlns="http://www.w3.org/2000/svg" width="197.04" height="307.11" viewBox="0 0 197.04 307.11">
  <defs>
    <style>
      .cls-1 {
        fill: #0a0a0a;
        stroke: #1800c6;
      }

      .cls-1, .cls-2, .cls-3, .cls-4 {
        stroke-miterlimit: 10;
        stroke-width: 3px;
      }

      .cls-2 {
        fill: #d60000;
        stroke: #0a0a0a;
      }

      .cls-3 {
        fill: #b100c4;
        stroke: #d60000;
      }

      .cls-4 {
        fill: #1800c6;
        stroke: #b100c4;
      }
    </style>
  </defs>
  <title>ULogo</title>
  <g id="Black">
    <path id="BlackU" class="cls-1" d="M1.5,247.94V21.18A19.09,19.09,0,0,1,7.22,7.34,18.24,18.24,0,0,1,20.72,1.5a18.47,18.47,0,0,1,13.5,5.72,18.5,18.5,0,0,1,5.72,13.5V247.94a17.85,17.85,0,0,0,5.72,13.16,18.65,18.65,0,0,0,13.5,5.61h78.72a18.73,18.73,0,0,0,13.61-5.49,17.9,17.9,0,0,0,5.61-13.28V21.18a19.2,19.2,0,0,1,5.61-14,19.06,19.06,0,0,1,27.23,0,19.23,19.23,0,0,1,5.6,14V247.49q0,23.79-17,41t-40.62,17.16H59.16a55.53,55.53,0,0,1-40.73-16.93A55.54,55.54,0,0,1,1.5,247.94Z"/>
  </g>
  <g id="Red">
    <path id="RedU" class="cls-2" d="M9.05,240.42V31.76A17.59,17.59,0,0,1,14.32,19a16.81,16.81,0,0,1,12.42-5.37,17,17,0,0,1,12.42,5.27,17,17,0,0,1,5.27,12.42V240.42a16.42,16.42,0,0,0,5.26,12.11,17.16,17.16,0,0,0,12.42,5.16h72.43a17.23,17.23,0,0,0,12.53-5.06,16.47,16.47,0,0,0,5.16-12.21V31.76a17.65,17.65,0,0,1,5.16-12.84,17.52,17.52,0,0,1,25.05,0,17.65,17.65,0,0,1,5.16,12.84V240q0,21.9-15.68,37.69t-37.38,15.79H62.11A51.09,51.09,0,0,1,24.63,277.9,51.09,51.09,0,0,1,9.05,240.42Z"/>
  </g>
  <g id="Pink">
    <path id="PinkU" class="cls-3" d="M19.22,224.68V45.56a14.87,14.87,0,0,1,4.65-10.93,15.05,15.05,0,0,1,11-4.61,15.24,15.24,0,0,1,11,4.52A14.38,14.38,0,0,1,50.46,45.2V224.68a13.91,13.91,0,0,0,4.65,10.39,15.4,15.4,0,0,0,11,4.43h64a15.47,15.47,0,0,0,11.06-4.34,13.94,13.94,0,0,0,4.56-10.48V45.56a14.92,14.92,0,0,1,4.55-11,15.8,15.8,0,0,1,22.13,0,14.93,14.93,0,0,1,4.56,11V224.31q0,18.81-13.86,32.36a45.58,45.58,0,0,1-33,13.55h-64A45.77,45.77,0,0,1,33,256.85Q19.21,243.47,19.22,224.68Z"/>
  </g>
  <g id="Blue">
    <path id="BlueU" class="cls-4" d="M38,212.6V73.4a11.73,11.73,0,0,1,3.51-8.5,11.21,11.21,0,0,1,8.29-3.58,12,12,0,0,1,11.8,11.8V212.6a11,11,0,0,0,3.51,8.08,11.46,11.46,0,0,0,8.29,3.44h48.32a11.56,11.56,0,0,0,8.36-3.37,11,11,0,0,0,3.44-8.15V73.4A11.76,11.76,0,0,1,137,64.83a11.7,11.7,0,0,1,16.71,0,11.76,11.76,0,0,1,3.44,8.57V212.32a34.44,34.44,0,0,1-10.46,25.14A34,34,0,0,1,121.76,248H73.44a34.11,34.11,0,0,1-25-10.4A34.07,34.07,0,0,1,38,212.6Z"/>
  </g>
</svg>
