<svg id="WLogo" xmlns="http://www.w3.org/2000/svg" width="133.6" height="99.79" viewBox="0 0 133.6 99.79">
  <defs>
    <style>
      .cls-1 {
        fill: #05d;
      }
    </style>
  </defs>
  <title>WLogo</title>
  <polygon id="BlueFiller" class="cls-1" points="27.3 41.23 38.82 13.45 53.19 49.9 57.91 45.77 67.02 19.69 78.31 40.52 88.33 18.93 99.48 36.69 108.74 61.07 96.84 82.8 89.09 65.8 78.88 50.61 66.58 76.76 56.59 59.94 43.92 82.8 27.3 41.23"/>
  <g id="W">
    <g id="RW">
      <path d="M94.35,97.23H92.78L67.05,26.15,41.79,97.23H40.36L10,14A29.7,29.7,0,0,0,6.1,6.22,7.18,7.18,0,0,0,0,3.49v-1h22v1c-2.14,0-3.22.78-3.22,2.35a14.11,14.11,0,0,0,1,4.23l24.7,67.79L64.84,20.59l-2-5.45q-2.6-7.16-5-9.4a7.58,7.58,0,0,0-5.35-2.25v-1H74.33v1c-2.1,0-3.15.91-3.15,2.72a19.81,19.81,0,0,0,1.33,4.37L97.15,78.12,121.76,9.39a.65.65,0,0,1,.13-.32l1-3.23c0-1.56-1.11-2.35-3.31-2.35v-1h13.6v1c-3.71,0-6.64,3.06-8.79,9.06Z" transform="translate(0 0)"/>
      <path d="M94.35,94.73c-.41,0-1.32.18-1.59-.07a2,2,0,0,1-.24-.65L91.41,91,87.17,79.22,75.25,46.31l-8-22.06c-.12-.34-.08-.61-.27-.45-.39.33-.6,1.7-.77,2.17L62.54,36.34,51,68.85,42.3,93.32c-.11.28-.26,1.21-.51,1.41a3.17,3.17,0,0,1-1.44,0c-.1-.07-.15-.41-.2-.52l-2.55-7L27,57.92,15.22,25.76c-2-5.6-3.85-11.37-6.21-16.85A20.2,20.2,0,0,0,5.67,3.2,7.62,7.62,0,0,0,0,1l0,2.5v-1L0,5h22l0-2.5v1l0-2.5c-1,0-2.3.15-2.9,1.11s-.34,3.19-.34,4.4a17.21,17.21,0,0,0,1.05,6.1c.29.83.6,1.65.9,2.48L26,29.46l14.58,40,2.51,6.9c.44,1.19.79,2.47,1.32,3.62.3.64.26.06.45-.48l1.75-4.94,13.74-38.8,4.32-12.17a2.75,2.75,0,0,0,.19-1,21.54,21.54,0,0,0,0-4.47,13.13,13.13,0,0,0-.61-1.69C62.78,12.36,61.53,8,59,4.51A8.14,8.14,0,0,0,52.56,1l0,2.5v-1l0,2.5H74.33l0-2.5v1l0-2.5a3,3,0,0,0-2.88,1.36c-.62,1.27-.3,3.2-.29,4.53a10.72,10.72,0,0,0,.21,2.83c.3,1.15.74,2.26,1.14,3.38l.92,2.49,5.47,15,15,41,2.31,6.32a15.88,15.88,0,0,0,1,2.68,11.36,11.36,0,0,0,.67-1.83l2-5.63,14.51-40.52,5.92-16.54c.46-1.28.93-2.57,1.38-3.86.1-.28.21-.55.3-.83.26-.79.47-1.61.71-2.41a11,11,0,0,0,.21-3.14c0-1,.28-2.69-.31-3.68s-2-1.14-3-1.17l0,2.5v-1l0,2.5h13.6l0-2.5v1l0-2.5c-6.46.2-8.41,8-10.21,13.06L116.23,33,107,59.07,98.6,82.71l-2.83,8a37.92,37.92,0,0,0-1.36,3.83l-.06.17a8.71,8.71,0,0,0,0,2.5,9.12,9.12,0,0,1,0,2.5L97.79,90l8-22.7L115.16,41l7.18-20.28c1.64-4.64,3-11,7.41-13.7a6.85,6.85,0,0,1,3.38-1s0-2.48,0-2.5v-1c0-.14,0-2.5,0-2.5h-13.6s0,2.49,0,2.5v1c0,.15,0,2.5,0,2.5,1.53,0,3.22.44,3.3,2.26V3.34c-2.38,8.06-5.52,15.93-8.35,23.85l-14,39.19-2.21,6.17-.7,2c-.06.17-.19.87-.35,1s.09.14-.11,0-.29-.81-.37-1L95,69.67l-13.86-38L74.84,14.46c-1.12-3.06-2.38-6.13-3.33-9.24-.11-.37-.18-.74-.28-1.1-.47-1.72-.63,5.64,0,3.72a3.65,3.65,0,0,1,.29-.71A3.18,3.18,0,0,1,74.33,6s0-2.48,0-2.5v-1c0-.14,0-2.5,0-2.5H52.56s0,2.49,0,2.5v1c0,.15,0,2.5,0,2.5,5.28.14,7.67,5,9.41,9.27,1,2.57,1.93,5.22,2.87,7.83v-5l-8.36,23.6L45.33,73.17a13.22,13.22,0,0,1-.77,2.18A8.83,8.83,0,0,1,44,74L40.05,63,27,27.31,21.76,12.84a76.33,76.33,0,0,1-2.63-7.58c-.12-.49-.19-1-.27-1.46l0,4A1.37,1.37,0,0,1,19,7.43a2.7,2.7,0,0,1,.3-.52A3.57,3.57,0,0,1,22.05,6s0-2.48,0-2.5v-1c0-.14,0-2.5,0-2.5H0s0,2.49,0,2.5v1C0,3.64,0,6,0,6A7.6,7.6,0,0,1,5.78,8.32a21.58,21.58,0,0,1,3.4,6c.42,1,.78,2,1.15,3L13.11,25,23.91,54.6,35.53,86.46,39.26,96.7l.91,2.5c0,.11.09.42.18.5a3.33,3.33,0,0,0,1.44,0c.27-.21.43-1.2.54-1.51l1.36-3.81,4.5-12.68L60.05,48.35l4.72-13.27,1.51-4.25c.13-.37.39-1.82.73-2,.17-.12.18.24.29.55l1.06,2.94,4.2,11.6,11.94,33,8,22.2c.35,1,.63.67,1.81.67C94.38,99.73,94.38,94.73,94.35,94.73Z" transform="translate(0 0)"/>
    </g>
  </g>
  <g id="M">
    <g id="MW">
      <path d="M39.25,2.56h1.56L66.54,73.64,91.8,2.56h1.43l30.34,83.23a29.41,29.41,0,0,0,3.92,7.78,7.19,7.19,0,0,0,6.08,2.72v.95h-22v-.95c2.15,0,3.22-.78,3.22-2.34a14,14,0,0,0-1-4.23L89,21.92,68.75,79.2l2,5.45c1.74,4.77,3.39,7.9,5,9.4A7.55,7.55,0,0,0,81,96.29v.95H59.26v-.95c2.1,0,3.15-.9,3.15-2.71a19.22,19.22,0,0,0-1.33-4.37L36.44,21.67,11.84,90.4a.94.94,0,0,1-.13.32l-1,3.23c0,1.56,1.1,2.34,3.31,2.34v.95H.46v-.95q5.58-.06,8.8-9.05Z" transform="translate(0 0)"/>
      <path d="M39.25,5.06c.41,0,1.32-.18,1.59.07.12.11.18.5.24.65l1.1,3.06,4.25,11.73L58.34,53.48l8,22.06c.13.33.08.61.27.45.39-.33.61-1.7.77-2.17l3.69-10.37L82.6,30.94,91.3,6.47c.1-.28.25-1.22.5-1.41a3.09,3.09,0,0,1,1.45.05c.09.07.15.41.19.52l2.55,7,10.66,29.24L118.37,74c2,5.6,3.86,11.37,6.22,16.85a19.74,19.74,0,0,0,3.34,5.71,7.56,7.56,0,0,0,5.64,2.2l0-2.5v.95l0-2.5h-22l0,2.5v-.95l0,2.5c1,0,2.3-.14,2.91-1.1s.34-3.19.34-4.4a17.44,17.44,0,0,0-1.05-6.1c-.29-.83-.6-1.65-.9-2.48L107.6,70.33,93,30.33l-2.52-6.9c-.43-1.19-.78-2.47-1.32-3.63-.3-.63-.25-.05-.44.49L87,25.23,73.24,64,68.93,76.2a2.75,2.75,0,0,0-.19,1,20.87,20.87,0,0,0,0,4.47,13.08,13.08,0,0,0,.6,1.69c1.45,4,2.71,8.38,5.24,11.88A8.1,8.1,0,0,0,81,98.79l0-2.5v.95l0-2.5H59.26l0,2.5v-.95l0,2.5a3,3,0,0,0,2.88-1.35c.63-1.27.3-3.2.3-4.53a11.63,11.63,0,0,0-.21-2.83c-.31-1.15-.74-2.27-1.15-3.38l-.91-2.49-5.47-15-15-41-2.3-6.32a15.88,15.88,0,0,0-1-2.68A13.66,13.66,0,0,0,35.78,21l-2,5.63L19.26,67.17,13.34,83.71c-.46,1.28-.93,2.57-1.38,3.85-.1.28-.21.56-.3.84-.27.79-.48,1.61-.71,2.41A10.62,10.62,0,0,0,10.73,94c0,1-.27,2.69.32,3.68s1.95,1.14,3,1.16l0-2.5v.95l0-2.5H.46l0,2.5v-.95l0,2.5c6.47-.19,8.41-8,10.22-13.05l6.69-18.9,9.25-26.12L35,17.08l2.84-8c.44-1.25,1-2.54,1.36-3.84a1,1,0,0,1,.06-.16,9.09,9.09,0,0,0,0-2.5,8.74,8.74,0,0,1,0-2.5L35.8,9.79l-8,22.7L18.44,58.83,11.25,79.11c-1.64,4.64-3.05,11-7.41,13.7a6.71,6.71,0,0,1-3.38,1s0,2.49,0,2.5v.95c0,.15,0,2.5,0,2.5H14.07s0-2.48,0-2.5v-.95c0-.14,0-2.49,0-2.5-1.54,0-3.23-.43-3.3-2.25v4.91c2.37-8.06,5.51-15.94,8.34-23.85l14-39.19,2.2-6.17.71-2c.06-.18.19-.87.35-1s-.1-.14.1,0,.3.8.38,1l1.73,4.76,13.87,38,6.28,17.21c1.11,3.06,2.38,6.13,3.32,9.24.11.37.19.74.29,1.1.46,1.72.62-5.64-.06-3.72a2.5,2.5,0,0,1-3.05,1.84s0,2.49,0,2.5v.95c0,.15,0,2.5,0,2.5H81s0-2.48,0-2.5v-.95c0-.14,0-2.49,0-2.5-5.28-.13-7.66-5-9.4-9.26-1-2.57-1.94-5.22-2.88-7.83v5l8.36-23.6L88.26,26.62A13.22,13.22,0,0,1,89,24.44a8.86,8.86,0,0,1,.51,1.39l4,11,13,35.7L111.83,87a76.4,76.4,0,0,1,2.64,7.58c.12.49.19,1,.27,1.46l0-4a1.89,1.89,0,0,1-.1.36,4.4,4.4,0,0,1-.3.52,3.55,3.55,0,0,1-2.77.91s0,2.49,0,2.5v.95c0,.15,0,2.5,0,2.5h22s0-2.48,0-2.5v-.95c0-.14,0-2.49,0-2.5a7.5,7.5,0,0,1-5.75-2.33,21.15,21.15,0,0,1-3.4-6c-.42-1-.79-2-1.16-3l-2.77-7.61L109.68,45.19,98.07,13.33,94.34,3.09,93.42.59a1.43,1.43,0,0,0-.18-.5,3.33,3.33,0,0,0-1.44,0c-.27.21-.43,1.2-.54,1.51L89.91,5.39,85.4,18.07,73.54,51.44,68.82,64.71,67.32,69c-.14.38-.39,1.83-.74,2.06-.17.12-.17-.24-.28-.55l-1.07-2.94L61,55.92l-11.94-33-8-22.2c-.36-1-.63-.67-1.81-.67C39.21.06,39.21,5.06,39.25,5.06Z" transform="translate(0 0)"/>
    </g>
  </g>
</svg>
