<svg id="XLogo" xmlns="http://www.w3.org/2000/svg" width="114.13" height="98.34" viewBox="0 0 114.13 98.34">
  <defs>
    <style>
      .cls-1 {
        stroke: #c60505;
      }

      .cls-1, .cls-2 {
        stroke-miterlimit: 10;
      }

      .cls-2 {
        stroke: #c40000;
      }
    </style>
  </defs>
  <title>XLogo</title>
  <g id="XType">
    <path id="Xtyp" class="cls-1" d="M52.15,51.42,43.51,25.36Q38.26,9.64,33.56,9.64,29.12,9.64,19.35,22l1.5-8Q30.18.5,39,.5q11,0,18.34,21.86l5.51,16.28L78,20.1Q94,.51,105.73.5A12.39,12.39,0,0,1,113.37,3L102.79,13.58a8.86,8.86,0,0,0-4.07-1.25q-6.63,0-25.47,21.55l-8.77,10L74.37,73Q79.82,89.2,85.2,89.2q5.07,0,13.15-10.52l-1.38,7q-8.76,12.15-17.9,12.15-10.89,0-17.28-18.35L53.9,56.63,34.44,80.68q-14,17.16-22.85,17.16Q5.83,97.84.7,92.33l10-9.89q2.07,3.32,5.13,3.32,6.57,0,26.48-22.93Z"/>
  </g>
  <path id="Stripe" class="cls-2" d="M18.69,64.94c-.82.16-2.42-3.34-3.47-5.62-.3-.65-.66-1.49-.8-1.87C13,53.5,16.66,47.12,18.32,45c7.57-9.54,36.13-9.1,60.4,1.45,9.55,4.15,14.74,8.25,18.16,5.91C102.16,48.78,98,33.45,93.6,21c4.27,5.06,6.43,7,7.6,7.63a5.1,5.1,0,0,1,1.47,1.21,6.4,6.4,0,0,1,1.2,2.81c3.09,18.54-1.65,23-1.65,23C97,60.46,81.15,55.49,49.59,45.35c-4.81-1.54-14.37-4.68-22.18-.31a16.55,16.55,0,0,0-6.83,6.8C17.5,58,19.81,64.71,18.69,64.94Z"/>
  <path d="M57.9,39.88l-3.62-7.05c-.82-1.59-3.06-.43-2.75,1.16A77.93,77.93,0,0,0,54.64,45.2a1.5,1.5,0,0,0,2.94-.4,38,38,0,0,0-.53-10,1.5,1.5,0,0,0-2.89.8c.38,2.67.74,5.35.87,8l2.8-.76-1.93-4.3c-.71-1.58-3.15-.44-2.74,1.16Q54.53,45,56,50.31a1.51,1.51,0,0,0,2.95-.4A28,28,0,0,0,58.08,43l-2.89.8c.25,1.1.5,2.19.72,3.3.11.52.21,1,.3,1.58,0,.26.1.52.14.79s0,.91.11.45l.39-.66-.1.08,2.35.3A67,67,0,0,1,56,43.14a1.47,1.47,0,0,0-1.87-.61,1.53,1.53,0,0,0-.87,1.77c.29,1.85.64,3.69,1,5.52s3.28,1.08,2.9-.8q-.53-2.57-1.14-5.11a1.51,1.51,0,0,0-3,.4,32.16,32.16,0,0,0,.67,4.78c.36,1.9,3.25,1.09,2.89-.8a54.79,54.79,0,0,0-2.06-7.66,1.51,1.51,0,0,0-2.9.8,15.94,15.94,0,0,0,1,3.29,1.53,1.53,0,0,0,1.64,1.07,1.5,1.5,0,0,0,1.3-1.47,28.24,28.24,0,0,0-.9-7.49,1.5,1.5,0,0,0-2.89.8L52.29,41l2.89-.79q-.45-2.15-1-4.26c-.5-1.88-3.27-1.08-2.89.79a25.21,25.21,0,0,0,1.65,5.58,1.51,1.51,0,0,0,2.74-.36l.73-3.11-2.74.36Q55,42,56.51,44.66a1.52,1.52,0,0,0,2.8-.76,19.89,19.89,0,0,0-.43-3.61l-2.89.8a26.76,26.76,0,0,0,1.47,3.65c.66,1.26,3,.74,2.8-.76a65.77,65.77,0,0,0-1.13-6.69,1.52,1.52,0,0,0-1.84-1,1.54,1.54,0,0,0-1,1.84,45.56,45.56,0,0,0,1.44,6.45,1.5,1.5,0,0,0,2.94-.4l.12-2.79L58,42.1a19.54,19.54,0,0,1,1.26,4c.34,1.65,3,1.28,2.95-.4a38,38,0,0,0-.64-5.64c-.31-1.64-3.12-1.29-3,.39a29.4,29.4,0,0,0,.68,4,1.52,1.52,0,0,0,1.84,1.05,1.54,1.54,0,0,0,1-1.84,30.12,30.12,0,0,0-1.38-5.77,1.5,1.5,0,0,0-2.89.8c.59,2.47,1.17,4.94,1.59,7.45L62.21,45,61.57,44a1.51,1.51,0,0,0-2.8.75,25.88,25.88,0,0,0,0,4.13l3-.4-.63-2.69a1.51,1.51,0,0,0-2.95.39l.17,3.28,2.95-.4L60.54,47c-.24-.66-.42-1.39-1.12-1.71a1.57,1.57,0,0,0-1.81.24,3.81,3.81,0,0,0-.67.82c-.09.13-.45.65-.42.64l1.15-.16-.18,0,.67.39A5.38,5.38,0,0,1,57.42,46l-.87-1.41a1.51,1.51,0,0,0-2.74.36,4.92,4.92,0,0,0-.13,1.71l3-.4c-.2-.65-.42-1.29-.68-1.92a1.55,1.55,0,0,0-1.44-1.1,1.51,1.51,0,0,0-1.45,1.1A8.07,8.07,0,0,0,53,47c.23,1.66,3.17,1.28,2.94-.39a13.38,13.38,0,0,0-.35-1.89A1.49,1.49,0,0,0,54,43.66a1.52,1.52,0,0,0-1.3,1.48,8.41,8.41,0,0,0,0,1.33c.07,1.92,3,1.94,3,0,0-.72-.05-1.44-.12-2.15l-2.95.39.53,1.89A1.51,1.51,0,0,0,56,46.2a29.11,29.11,0,0,0-.92-6.15,1.51,1.51,0,0,0-2.95.39v.86h3a16.72,16.72,0,0,0-.59-3.59,1.51,1.51,0,0,0-2.95.4,22.77,22.77,0,0,0,.06,3.09l3-.4-.89-3a1.51,1.51,0,0,0-3,.39,14.26,14.26,0,0,0,.29,2.44,1.5,1.5,0,1,0,2.89-.8,13.94,13.94,0,0,0-.57-2.2,1.5,1.5,0,0,0-2.94.4,6.48,6.48,0,0,0,.26,1.8,1.51,1.51,0,0,0,2.9-.8,6.3,6.3,0,0,0-.52-1.3,1.51,1.51,0,0,0-2.79.76l0,1.29,2.8-.76-.68-1.41A1.49,1.49,0,0,0,50.59,37a1.52,1.52,0,0,0-.87,1.77L50,40.22a1.51,1.51,0,0,0,2.89,0A5.77,5.77,0,0,0,53,39a1.5,1.5,0,0,0-3,0v.93l2.79-.76L52,37.43a1.51,1.51,0,0,0-1.88-.62,1.55,1.55,0,0,0-.87,1.77,7.45,7.45,0,0,0,.56,1.79c.63,1.45,2.76.59,2.8-.76a5.6,5.6,0,0,0-.11-1.15,1.51,1.51,0,0,0-1.84-1.05,1.54,1.54,0,0,0-1,1.85,2,2,0,0,1,0,.35l2.79-.76a4.31,4.31,0,0,1-.25-1.06l-2.74,1.15.85,1.72c.68,1.37,2.8.67,2.8-.75V39H50a2.16,2.16,0,0,1,0,.44H52.9L52.61,38l-2.74,1.16.68,1.41c.65,1.37,2.82.67,2.79-.76l0-1.29-2.8.76a2,2,0,0,1,.21.58l2.9-.8a3.12,3.12,0,0,1-.16-1l-2.95.4a13.94,13.94,0,0,1,.57,2.2l2.89-.8a10,10,0,0,1-.18-1.64l-2.95.4.89,3c.47,1.55,3.1,1.34,2.95-.4a22.77,22.77,0,0,1-.06-3.09l-2.94.4a13.8,13.8,0,0,1,.48,2.79c.13,1.91,3,2,3,0v-.86l-3,.4A25.1,25.1,0,0,1,53,46.2l3-.4-.53-1.88c-.44-1.57-3.12-1.34-3,.4.07.71.11,1.43.12,2.15h3a8.41,8.41,0,0,1,0-1.33l-3,.39a8.3,8.3,0,0,1,.24,1.1l3-.4a3.36,3.36,0,0,1,0-1H53.06c.25.63.48,1.27.67,1.91a1.52,1.52,0,0,0,1.65,1.08,1.47,1.47,0,0,0,1.3-1.47,2.58,2.58,0,0,1,0-.92L54,46.14l1.22,2a3.26,3.26,0,0,0,1.34,1.48,1.83,1.83,0,0,0,2-.37c.48-.46.71-1.18,1.22-1.6l-1.82.23.13.06-.54-.53a18.89,18.89,0,0,1,.9,2.49c.53,1.5,3,1.39,2.94-.4l-.17-3.28-2.94.4.63,2.7c.37,1.62,3.09,1.31,2.94-.4a25.88,25.88,0,0,1,0-4.13L59,45.53l.64.95a1.51,1.51,0,0,0,2.74-1.15c-.43-2.51-1-5-1.6-7.45l-2.89.8a30.78,30.78,0,0,1,1.38,5.76l2.89-.79a24.34,24.34,0,0,1-.57-3.18l-2.94.4a33,33,0,0,1,.53,4.85l2.94-.4a23.21,23.21,0,0,0-1.56-4.73c-.65-1.45-2.74-.6-2.8.75l-.12,2.79,3-.4a45.73,45.73,0,0,1-1.44-6.44l-2.89.79a56.4,56.4,0,0,1,1,5.9l2.79-.75a21.17,21.17,0,0,1-1.17-2.94,1.5,1.5,0,0,0-2.89.8,15.61,15.61,0,0,1,.32,2.81l2.79-.75c-1-1.81-2-3.63-2.86-5.49A1.51,1.51,0,0,0,53.5,38l-.73,3.11,2.74-.35a22.2,22.2,0,0,1-1.35-4.86l-2.89.79q.57,2.11,1,4.26A1.5,1.5,0,0,0,54.13,42a1.53,1.53,0,0,0,1-1.84l-.51-3.35-2.89.8a25.57,25.57,0,0,1,.79,6.69l3-.4a15.32,15.32,0,0,1-1-3.29l-2.9.8a54.83,54.83,0,0,1,2.07,7.66l2.89-.8a26.66,26.66,0,0,1-.56-4l-2.95.4c.42,1.69.8,3.4,1.14,5.11l2.9-.8q-.6-2.75-1-5.52l-2.74,1.15a68.26,68.26,0,0,0,3.15,6.5,1.53,1.53,0,0,0,2.36.3c1.11-.87.36-2.92.15-4.06-.28-1.47-.61-2.94-.94-4.4-.43-1.88-3.3-1.08-2.89.8A24.87,24.87,0,0,1,56,49.91l2.94-.4q-1.48-5.28-2.86-10.6l-2.74,1.16,1.93,4.29c.61,1.37,2.86.67,2.79-.75-.14-3-.56-5.91-1-8.85l-2.89.8a34.89,34.89,0,0,1,.42,9.24l3-.4a77.53,77.53,0,0,1-3.1-11.21l-2.74,1.16,3.62,7c.89,1.71,3.48.2,2.59-1.52Z"/>
  <path d="M52.2,42.75a1.66,1.66,0,0,0-.81,1.65l.1.73.2,1.49a1.17,1.17,0,0,0,.12.58,1.24,1.24,0,0,0,.31.48,1.52,1.52,0,0,0,1.07.44,1.56,1.56,0,0,0,1.06-.44l.23-.3a1.58,1.58,0,0,0,.21-.76l-.17-1.26-.08-.61a2.32,2.32,0,0,1-.06-.59l-.06.4s0,0,0-.06l-.15.36,0,0-.24.3,0,0-.3.23h0a1.5,1.5,0,0,0,.54-2.05,1.5,1.5,0,0,0-.89-.69,1.62,1.62,0,0,0-1.16.15Z"/>
  <path d="M51.18,45.67l0,0-.23-.3a.77.77,0,0,1,.1.18l-.15-.36a6.41,6.41,0,0,1,.16.76,2.05,2.05,0,0,0,.27.67,7.57,7.57,0,0,0,.49.63l-.23-.3a1.68,1.68,0,0,1,.21.37L51.69,47q.11.27.18.54a1.52,1.52,0,0,0,.69.9,1.5,1.5,0,0,0,2-.54,1.54,1.54,0,0,0,.15-1.15,5.76,5.76,0,0,0-.36-1,4.43,4.43,0,0,0-.6-.82l.23.3A.86.86,0,0,1,53.9,45l.15.36a3.69,3.69,0,0,1-.14-.66,2.39,2.39,0,0,0-.61-1.18,1.52,1.52,0,0,0-1.06-.44,1.5,1.5,0,0,0-1.5,1.5,1.63,1.63,0,0,0,.44,1.06Z"/>
  <path d="M59.64,47a9.37,9.37,0,0,0,.12,4A1.5,1.5,0,0,0,61,52.09a1.49,1.49,0,0,0,1.49-.72,31,31,0,0,0,1.9-5.62l-3-.4.15,4.28a1.51,1.51,0,0,0,1.3,1.47A1.48,1.48,0,0,0,64.55,50L65,47l-2.51.66c-.14-.2-.17-.24-.09-.11-.09-.23-.11-.28-.06-.13s.06.21.08.32.09.5.13.75c.09.52.17,1,.24,1.58l0-.4c0,.28.07.55.1.83a1.63,1.63,0,0,0,.44,1.06,1.65,1.65,0,0,0,.86.41,1.49,1.49,0,0,0,1.65-1.08,13.69,13.69,0,0,0,.2-2H63l0,.68a1.5,1.5,0,1,0,3,0l0-.68a1.5,1.5,0,1,0-3,0c0,.41,0,.82-.09,1.22l.06-.4c0,.14,0,.27-.07.41l3,.4c-.1-.86-.22-1.71-.35-2.55a4.35,4.35,0,0,0-.88-2.41,1.51,1.51,0,0,0-2.51.66l-.42,3.06,2.95.4-.15-4.28a1.5,1.5,0,0,0-2.94-.4c-.23.88-.47,1.76-.74,2.63-.13.44-.28.87-.44,1.29l-.1.27-.08.18c-.06.15,0,.12,0-.09,0,0-.25.57-.28.62l2.74.36a8.52,8.52,0,0,1-.17-.85l.06.39a7.41,7.41,0,0,1,0-1.94l-.05.4a2.5,2.5,0,0,1,.06-.38,1.67,1.67,0,0,0-.15-1.16,1.59,1.59,0,0,0-.9-.69A1.54,1.54,0,0,0,59.64,47Z"/>
  <path d="M64.69,53.54a1.5,1.5,0,0,0,0-3,1.5,1.5,0,0,0,0,3Z"/>
  <path d="M66,50.54h0a1.11,1.11,0,0,0-.49-.31A1.06,1.06,0,0,0,65,50.1a1,1,0,0,0-.57.13,1.11,1.11,0,0,0-.49.31l-.23.3a1.55,1.55,0,0,0-.21.76l.06.4a1.57,1.57,0,0,0,.38.66h0a1.08,1.08,0,0,0,.48.31,1.36,1.36,0,0,0,1.16,0,1.14,1.14,0,0,0,.48-.31l.23-.3a1.48,1.48,0,0,0,.21-.76l0-.4a1.59,1.59,0,0,0-.39-.66Z"/>
  <path d="M65,53a1.5,1.5,0,0,0,0-3,1.5,1.5,0,0,0,0,3Z"/>
  <path d="M65,53a1.5,1.5,0,0,0,0-3,1.5,1.5,0,0,0,0,3Z"/>
  <path d="M64.82,52.76a1.5,1.5,0,0,0,0-3,1.5,1.5,0,0,0,0,3Z"/>
  <path d="M64.79,52.62a1.5,1.5,0,0,0,0-3,1.5,1.5,0,0,0,0,3Z"/>
  <path d="M64.74,52.59a1.5,1.5,0,0,0,0-3,1.5,1.5,0,0,0,0,3Z"/>
  <path d="M64.77,52.64a1.5,1.5,0,0,0,0-3,1.5,1.5,0,0,0,0,3Z"/>
  <path d="M64.8,52.71a1.5,1.5,0,0,0,0-3,1.5,1.5,0,0,0,0,3Z"/>
  <path d="M64.83,52.73a1.5,1.5,0,0,0,0-3,1.5,1.5,0,0,0,0,3Z"/>
  <path d="M64.84,52.76a1.5,1.5,0,0,0,0-3,1.5,1.5,0,0,0,0,3Z"/>
  <path d="M64.85,52.76a1.5,1.5,0,0,0,0-3,1.5,1.5,0,0,0,0,3Z"/>
  <path d="M64.86,52.76a1.5,1.5,0,0,0,0-3,1.5,1.5,0,0,0,0,3Z"/>
  <path d="M64.86,52.76a1.5,1.5,0,0,0,0-3,1.5,1.5,0,0,0,0,3Z"/>
  <path d="M63.38,51.38h0a1.06,1.06,0,0,0,.13.58,1.36,1.36,0,0,0,.79.79,1.06,1.06,0,0,0,.58.13l.4-.05a1.49,1.49,0,0,0,.66-.39l.23-.3a1.45,1.45,0,0,0,.21-.76h0a1.27,1.27,0,0,0-.13-.58,1.17,1.17,0,0,0-.31-.48,1.11,1.11,0,0,0-.49-.31,1,1,0,0,0-.57-.13l-.4,0a1.39,1.39,0,0,0-.66.39l-.24.3a1.57,1.57,0,0,0-.2.76Z"/>
  <path d="M65,53a1.5,1.5,0,0,0,0-3,1.5,1.5,0,0,0,0,3Z"/>
  <path d="M65,53a1.5,1.5,0,0,0,0-3,1.5,1.5,0,0,0,0,3Z"/>
  <path d="M65,53a1.5,1.5,0,0,0,0-3,1.5,1.5,0,0,0,0,3Z"/>
  <path d="M65,53a1.5,1.5,0,0,0,0-3,1.5,1.5,0,0,0,0,3Z"/>
  <path d="M65,53.05a1.5,1.5,0,0,0,0-3,1.5,1.5,0,0,0,0,3Z"/>
  <path d="M65,53.06a1.5,1.5,0,0,0,0-3,1.5,1.5,0,0,0,0,3Z"/>
  <path d="M65,53.06a1.5,1.5,0,0,0,0-3,1.5,1.5,0,0,0,0,3Z"/>
  <path d="M65,53.11a1.5,1.5,0,0,0,0-3,1.5,1.5,0,0,0,0,3Z"/>
  <path d="M64.68,52.35a1.5,1.5,0,0,0,0-3,1.5,1.5,0,0,0,0,3Z"/>
  <path d="M64.68,52.35a1.5,1.5,0,0,0,0-3,1.5,1.5,0,0,0,0,3Z"/>
  <path d="M64.65,52.24a1.5,1.5,0,0,0,0-3,1.5,1.5,0,0,0,0,3Z"/>
  <path d="M64.7,52.34a1.5,1.5,0,0,0,0-3,1.5,1.5,0,0,0,0,3Z"/>
  <path d="M64.7,52.38a1.5,1.5,0,0,0,0-3,1.5,1.5,0,0,0,0,3Z"/>
  <path d="M64.73,52.44a1.5,1.5,0,0,0,0-3,1.5,1.5,0,0,0,0,3Z"/>
  <path d="M63.46,51.73v0a1,1,0,0,0,.39.42,1,1,0,0,0,.51.27,1.08,1.08,0,0,0,.59,0,1.12,1.12,0,0,0,.56-.18l.31-.23a1.57,1.57,0,0,0,.38-.66l.06-.4a1.55,1.55,0,0,0-.21-.76v0a1.13,1.13,0,0,0-.39-.42,1,1,0,0,0-.51-.27,1.22,1.22,0,0,0-.6,0,1.16,1.16,0,0,0-.56.18l-.3.23a1.54,1.54,0,0,0-.38.67l-.06.39a1.43,1.43,0,0,0,.21.76Z"/>
  <path d="M64.81,52.56a1.5,1.5,0,0,0,0-3,1.5,1.5,0,0,0,0,3Z"/>
  <path d="M60,41.73a3,3,0,0,1,.21.4L60,41.77l0,.09a1.49,1.49,0,0,0,.39.66,1.45,1.45,0,0,0,.66.38,1.55,1.55,0,0,0,.8,0,1.57,1.57,0,0,0,.66-.38l0-.05-2.51-.67a6,6,0,0,0,.28.7,1.45,1.45,0,0,0,.53.54,1.16,1.16,0,0,0,.56.18,1.22,1.22,0,0,0,.6,0,1.49,1.49,0,0,0,.66-.39l.18-.22-2.36-.3a2.39,2.39,0,0,1,.13.28l-.15-.36a1.8,1.8,0,0,1,.08.21,1.59,1.59,0,0,0,.39.66l.3.23a1.12,1.12,0,0,0,.56.18,1.49,1.49,0,0,0,.77-.1,1.44,1.44,0,0,0,.72-.61,2.44,2.44,0,0,0,.28-.69l-3-.4,0,.29.05.4a1.26,1.26,0,0,0,.27.51,1.43,1.43,0,0,0,.78.53,1.76,1.76,0,0,0,.79,0,1.59,1.59,0,0,0,.9-.69l.16-.22H61.09a.16.16,0,0,1,0,.07L61,42.21l0,.12,0-.4v0a1.5,1.5,0,0,0,.32.91,1.44,1.44,0,0,0,.78.54,1.8,1.8,0,0,0,.8,0,1.26,1.26,0,0,0,.51-.27,1.18,1.18,0,0,0,.38-.42.57.57,0,0,1,.08-.13l-.24.3.06,0-2.51-.66s0,.05,0,.07l0-.4v.07l0,.4a1.14,1.14,0,0,0,.27.51,1.39,1.39,0,0,0,.78.54,1.8,1.8,0,0,0,.8,0,1.15,1.15,0,0,0,.51-.27,1,1,0,0,0,.38-.42l.11-.14-2.74-.36,0,.16.15.36.23.3.31.24a1.12,1.12,0,0,0,.56.18.86.86,0,0,0,.39,0,.7.7,0,0,0,.38-.11.69.69,0,0,0,.33-.19,1.05,1.05,0,0,0,.39-.42l0-.06-.24.3a1.54,1.54,0,0,1,.26-.25l-2.57-1.06a1.09,1.09,0,0,1,0,.18l.05-.4a.31.31,0,0,1,0,.13,1.52,1.52,0,0,0,.16,1.16L62,43a1.24,1.24,0,0,0,.48.31,1.44,1.44,0,0,0,1,.07l.36-.15a1.61,1.61,0,0,0,.54-.53,3.83,3.83,0,0,1,.37-.69l-2.8-.75a1.7,1.7,0,0,1,0,.22l.05-.4a1,1,0,0,1-.09.34A1.73,1.73,0,0,0,62,42.59l.23.3a1.14,1.14,0,0,0,.48.31,1.44,1.44,0,0,0,1,.08,1.52,1.52,0,0,0,.9-.69.87.87,0,0,1,.11-.18l-.24.3.08-.09L62,41.56v.25a1.48,1.48,0,0,0,.74,1.29,1.5,1.5,0,0,0,1.52,0,2.33,2.33,0,0,0,.83-.82l-2.74-.36v0l0-.4v.08l0-.4v0a1.5,1.5,0,0,0,1,1.85A1.54,1.54,0,0,0,64.52,43a1.67,1.67,0,0,0,.69-.9,1.55,1.55,0,0,0,.07-.48,1.33,1.33,0,0,0-.07-.48,1.63,1.63,0,0,0-.38-.66l-.31-.23a1.09,1.09,0,0,0-.55-.18.68.68,0,0,0-.4,0,.83.83,0,0,0-.38.1.7.7,0,0,0-.33.2,1.06,1.06,0,0,0-.39.42l0,.06.23-.3a.81.81,0,0,1-.16.16l.31-.24-.1.06L65,41.81v-.25l0-.4-.15-.36a1.53,1.53,0,0,0-.72-.61.72.72,0,0,0-.38-.1.68.68,0,0,0-.4,0,.75.75,0,0,0-.38.1,1.14,1.14,0,0,0-.48.31,2.33,2.33,0,0,0-.42.57l2.74,1.16c0-.1.06-.2.08-.3a3,3,0,0,0,.07-.66,1.48,1.48,0,0,0-.32-.91,1.39,1.39,0,0,0-.78-.54,1.8,1.8,0,0,0-.8,0,1.57,1.57,0,0,0-.89.69,3.75,3.75,0,0,0-.37.68l2.74,1.16a1.91,1.91,0,0,0,.07-.71,1.87,1.87,0,0,0-.2-.76,1.53,1.53,0,0,0-.72-.61.7.7,0,0,0-.38-.1.65.65,0,0,0-.39,0,.7.7,0,0,0-.38.1,1.11,1.11,0,0,0-.49.31,3.16,3.16,0,0,0-.53.62l2.74.35,0-.16L64,41l-.24-.3-.3-.24a1.22,1.22,0,0,0-.56-.17,1.49,1.49,0,0,0-.77.1.77.77,0,0,0-.34.19,1.18,1.18,0,0,0-.38.42l-.11.15,2.8.75a2,2,0,0,0-.07-.54,1.5,1.5,0,0,0-1.05-1,1.63,1.63,0,0,0-1.82.87L64,42a2,2,0,0,0-.28-1,1.54,1.54,0,0,0-1.29-.74,1.43,1.43,0,0,0-.76.21,1.45,1.45,0,0,0-.54.53l-.16.23,2.8.76,0-.29a1,1,0,0,0-.13-.57,1.11,1.11,0,0,0-.31-.49l-.3-.23a1.12,1.12,0,0,0-.56-.18.9.9,0,0,0-.4,0,1.16,1.16,0,0,0-.56.18,1.48,1.48,0,0,0-.68.9,1.18,1.18,0,0,1-.07.2l.15-.35-.06.11,2.74.36a6.24,6.24,0,0,0-.36-.84,1.4,1.4,0,0,0-.54-.54,1.09,1.09,0,0,0-.55-.18,1.12,1.12,0,0,0-.6,0,1.45,1.45,0,0,0-.66.38l-.18.22L63,41l0,0,.15.35A2.49,2.49,0,0,1,63,41a1.51,1.51,0,0,0-1-1,1.55,1.55,0,0,0-.8,0,1.39,1.39,0,0,0-.66.39l0,0,2.5.66a5.43,5.43,0,0,0-.39-.85,1.5,1.5,0,0,0-2-.54,1.55,1.55,0,0,0-.69.9A1.62,1.62,0,0,0,60,41.73Z"/>
  <path d="M64,39.05l-.92.92a1.24,1.24,0,0,0-.31.48,1.29,1.29,0,0,0-.13.58,1.27,1.27,0,0,0,.13.58,1.11,1.11,0,0,0,.31.48l.31.24a1.5,1.5,0,0,0,.75.2l.4-.05a1.39,1.39,0,0,0,.66-.39l.93-.92a1.17,1.17,0,0,0,.31-.48,1.46,1.46,0,0,0,0-1.16,1.24,1.24,0,0,0-.31-.48l-.31-.23a1.43,1.43,0,0,0-.76-.21l-.39,0a1.56,1.56,0,0,0-.67.39Z"/>
  <path d="M63.86,39.22c-.48.41-.8,1-1.27,1.39a1.14,1.14,0,0,0-.31.48,1.08,1.08,0,0,0-.13.58,1.06,1.06,0,0,0,.13.58,1,1,0,0,0,.31.48l.3.24a1.54,1.54,0,0,0,.76.2l.4-.05a1.49,1.49,0,0,0,.66-.39c.47-.41.79-1,1.27-1.39a1.14,1.14,0,0,0,.31-.48,1.36,1.36,0,0,0,0-1.16,1.08,1.08,0,0,0-.31-.48l-.3-.24a1.57,1.57,0,0,0-.76-.2l-.4,0a1.49,1.49,0,0,0-.66.39Z"/>
  <path d="M53.9,45.1l-.06-.16a1.72,1.72,0,0,0-.69-.9l-.36-.15a1.22,1.22,0,0,0-.6,0,.7.7,0,0,0-.37.11,1.11,1.11,0,0,0-.49.31l-.23.3a1.45,1.45,0,0,0-.21.76v.17a2.7,2.7,0,0,0,0,.28,2.7,2.7,0,0,0,0,.28l.15.36a1.12,1.12,0,0,0,.39.42.69.69,0,0,0,.33.19,1.11,1.11,0,0,0,.57.13l.4-.05.36-.15a1.13,1.13,0,0,0,.42-.39,1.26,1.26,0,0,0,.27-.51.06.06,0,0,0,0,0,3.12,3.12,0,0,0,.06-.44A1.22,1.22,0,0,0,53.8,45a1.32,1.32,0,0,0-.8-.8,1.22,1.22,0,0,0-.57-.13l-.4.06a1.45,1.45,0,0,0-.66.38l-.24.31a1.5,1.5,0,0,0-.2.75s0,0,0,0l.06-.4s0,0,0,0h2.89a.22.22,0,0,1,0-.08l0,.4a2.18,2.18,0,0,1,0-.25l-2.94.4,0,.16a1.26,1.26,0,0,0,.27.51,1.31,1.31,0,0,0,.42.39,1.82,1.82,0,0,0,1.16.15l.36-.15a1.61,1.61,0,0,0,.53-.54l.16-.36a1.55,1.55,0,0,0,0-.8Z"/>
  <path d="M52.3,46.79a1.5,1.5,0,0,0,0-3,1.5,1.5,0,0,0,0,3Z"/>
  <path d="M52.23,46.62a1.5,1.5,0,0,0,0-3,1.5,1.5,0,0,0,0,3Z"/>
  <path d="M50.79,45.54c0,.1,0,.19.07.29a4.67,4.67,0,0,0,.24.62,1.31,1.31,0,0,0,.39.42,1.14,1.14,0,0,0,.51.27,1.11,1.11,0,0,0,.6,0,1,1,0,0,0,.56-.17l.3-.24a1.47,1.47,0,0,0,.38-.66l.06-.4a1.48,1.48,0,0,0-.21-.76l0,0,.15.36a4.25,4.25,0,0,1-.14-.51,1.26,1.26,0,0,0-.27-.51,1.1,1.1,0,0,0-.42-.38,1.66,1.66,0,0,0-1.16-.15l-.35.15a1.4,1.4,0,0,0-.54.54l-.15.35a1.55,1.55,0,0,0,0,.8Z"/>
  <path d="M50.68,44.88v0h0l0,.4h0a1,1,0,0,0,.26.51,1.08,1.08,0,0,0,.43.39,1.09,1.09,0,0,0,.55.18,1.22,1.22,0,0,0,.6,0l.36-.15a1.47,1.47,0,0,0,.54-.54l.15-.36a1.51,1.51,0,0,0,0-.79v0l0,.4v0a1.15,1.15,0,0,0-.13-.58,1.11,1.11,0,0,0-.31-.48,1.14,1.14,0,0,0-.48-.31,1.08,1.08,0,0,0-.58-.13l-.4,0a1.39,1.39,0,0,0-.66.39l-.24.3a1.54,1.54,0,0,0-.2.76Z"/>
  <path d="M53.94,45.68v0l.05.4V46a1.14,1.14,0,0,0-.13-.57,1.11,1.11,0,0,0-.31-.49,1.24,1.24,0,0,0-.48-.31,1.27,1.27,0,0,0-.58-.13l-.4.06a1.57,1.57,0,0,0-.66.38l-.24.31A1.5,1.5,0,0,0,51,46v0h0l.06.4v0a1.14,1.14,0,0,0,.27.51,1,1,0,0,0,.42.39,1.12,1.12,0,0,0,.56.18,1.22,1.22,0,0,0,.6,0l.35-.15a1.4,1.4,0,0,0,.54-.54l.15-.36a1.51,1.51,0,0,0,0-.79Z"/>
  <path d="M54,46v-.12a1.06,1.06,0,0,0-.13-.58,1.36,1.36,0,0,0-.79-.79,1.06,1.06,0,0,0-.58-.13l-.4,0a1.49,1.49,0,0,0-.66.39l-.23.3a1.48,1.48,0,0,0-.21.76V46a1.27,1.27,0,0,0,.13.58,1.24,1.24,0,0,0,.31.48,1.11,1.11,0,0,0,.49.31,1.14,1.14,0,0,0,.57.13l.4,0a1.56,1.56,0,0,0,.67-.39l.23-.3A1.47,1.47,0,0,0,54,46Z"/>
  <path d="M53.94,45.93v0l0-.4h0v0a1,1,0,0,0-.27-.51,1.06,1.06,0,0,0-.42-.39,1.12,1.12,0,0,0-.56-.18,1.19,1.19,0,0,0-.59,0l-.36.15a1.4,1.4,0,0,0-.54.54l-.15.36a1.55,1.55,0,0,0,0,.8,0,0,0,0,0,0,0l-.06-.4v0a1.29,1.29,0,0,0,.13.58,1.24,1.24,0,0,0,.31.48,1.21,1.21,0,0,0,.49.31,1.14,1.14,0,0,0,.57.13l.4-.06a1.54,1.54,0,0,0,.67-.38l.23-.31a1.41,1.41,0,0,0,.2-.75Z"/>
  <path d="M53.9,45.79v0a1.27,1.27,0,0,0-.13-.58,1.24,1.24,0,0,0-.31-.48,1.11,1.11,0,0,0-.49-.31,1.14,1.14,0,0,0-.57-.13l-.4,0a1.56,1.56,0,0,0-.67.39l-.23.3a1.47,1.47,0,0,0-.2.76v0a1.13,1.13,0,0,0,.12.57,1.32,1.32,0,0,0,.31.49,1.21,1.21,0,0,0,.49.31,1.27,1.27,0,0,0,.58.13l.39-.06a1.54,1.54,0,0,0,.67-.38l.23-.31a1.51,1.51,0,0,0,.21-.75Z"/>
  <path d="M50.63,44.78v0a1.27,1.27,0,0,0,.13.58,1.34,1.34,0,0,0,.8.79,1,1,0,0,0,.57.13l.4-.05a1.39,1.39,0,0,0,.66-.39l.24-.3a1.57,1.57,0,0,0,.2-.76v0a1.06,1.06,0,0,0-.13-.58,1.14,1.14,0,0,0-.31-.48,1,1,0,0,0-.48-.31,1.15,1.15,0,0,0-.58-.13l-.4,0a1.59,1.59,0,0,0-.66.39l-.23.3a1.48,1.48,0,0,0-.21.76Z"/>
  <path d="M52.16,46.43a1.5,1.5,0,0,0,0-3,1.5,1.5,0,0,0,0,3Z"/>
  <path d="M52.18,46.53a1.5,1.5,0,0,0,0-3,1.5,1.5,0,0,0,0,3Z"/>
  <path d="M53.69,45.06h0a1.27,1.27,0,0,0-.13-.58,1.24,1.24,0,0,0-.31-.48,1.72,1.72,0,0,0-1.06-.44l-.4,0a1.47,1.47,0,0,0-.66.39l-.24.3a1.57,1.57,0,0,0-.2.76h0a1.06,1.06,0,0,0,.13.58,1.34,1.34,0,0,0,.79.8,1.14,1.14,0,0,0,.58.12l.4-.05a1.57,1.57,0,0,0,.66-.38l.23-.31a1.43,1.43,0,0,0,.21-.76Z"/>
  <path d="M50.23,39.79a1.5,1.5,0,0,0,0-3,1.5,1.5,0,0,0,0,3Z"/>
  <path d="M49.73,39.29a1.5,1.5,0,0,0,0-3,1.5,1.5,0,0,0,0,3Z"/>
  <path d="M49.73,39.29a1.5,1.5,0,0,0,0-3,1.5,1.5,0,0,0,0,3Z"/>
  <path d="M49.73,39.29a1.5,1.5,0,0,0,0-3,1.5,1.5,0,0,0,0,3Z"/>
  <path d="M48.44,38.55c.06.13.12.26.17.39l-.15-.36c.08.18.15.37.21.55a1.14,1.14,0,0,0,.27.51,1.31,1.31,0,0,0,.42.39,1.16,1.16,0,0,0,.56.18,1.22,1.22,0,0,0,.6,0l.36-.15a1.74,1.74,0,0,0,.54-.54l.15-.36a1.55,1.55,0,0,0,0-.8c-.16-.44-.34-.87-.54-1.3a1.31,1.31,0,0,0-.39-.42,1.14,1.14,0,0,0-.51-.27,1.11,1.11,0,0,0-.6,0,1.14,1.14,0,0,0-.56.17l-.3.24a1.57,1.57,0,0,0-.38.66l-.06.4a1.48,1.48,0,0,0,.21.76Z"/>
  <path d="M48.42,38.51a1.21,1.21,0,0,0,0,.18l0,.08c.06.15.12.3.19.45a1.18,1.18,0,0,0,.38.42,1.13,1.13,0,0,0,.51.26,1,1,0,0,0,.6,0,1.12,1.12,0,0,0,.56-.18l.3-.23a1.49,1.49,0,0,0,.39-.66l0-.4a1.54,1.54,0,0,0-.2-.76l0-.06.15.35a1.31,1.31,0,0,1-.09-.28A1.26,1.26,0,0,0,51,37.2a1,1,0,0,0-.42-.38,1.12,1.12,0,0,0-.56-.18,1.07,1.07,0,0,0-.59,0l-.36.16a1.45,1.45,0,0,0-.54.53l-.15.36a1.55,1.55,0,0,0,0,.8Z"/>
  <path d="M49.82,39.56a1.5,1.5,0,0,0,0-3,1.5,1.5,0,0,0,0,3Z"/>
  <path d="M49.81,39.61a1.5,1.5,0,0,0,0-3,1.5,1.5,0,0,0,0,3Z"/>
  <path d="M49.78,39.5a1.5,1.5,0,0,0,0-3,1.5,1.5,0,0,0,0,3Z"/>
  <path d="M49.88,39.8a1.5,1.5,0,0,0,0-3,1.5,1.5,0,0,0,0,3Z"/>
  <path d="M49.88,39.8a1.5,1.5,0,0,0,0-3,1.5,1.5,0,0,0,0,3Z"/>
  <path d="M49.88,39.8a1.5,1.5,0,0,0,0-3,1.5,1.5,0,0,0,0,3Z"/>
</svg>
