<svg id="ZLogo" xmlns="http://www.w3.org/2000/svg" width="269.16" height="186.56" viewBox="0 0 269.16 186.56">
  <defs>
    <style>
      .cls-1 {
        fill: #6d0a29;
      }

      .cls-2 {
        fill: #091870;
      }
    </style>
  </defs>
  <title>ZLogo</title>
  <g id="Z">
    <path id="ZMain" class="cls-1" d="M201.79,22.6,42.53,168.8l-23.48,6.58L167.92,39.13,84.08,62.62q-39.28,11-54.65,18.89Q13.86,89.54,8,101.87L2.5,103.41q-.94-4.26.11-15.26.57-5.36,0-7.32-.07-.27-1.41-3.18,24.5-5.7,65.94-17.32ZM64.33,162.7,224.07,16.36l23.24-6.51L99.15,145.9l76.9-21.55q45.27-12.69,62.89-23.6Q255.88,90.22,263.59,79l5.51-1.54q.61,4.07-5,16.33-5.26,11.59-5.2,15.53-32.64,8-59.23,15.44Z" transform="translate(0 0)"/>
  </g>
  <path id="TopBar" class="cls-2" d="M0,74.19c35.51-13.34,74.92-26.37,118-38,39.66-10.71,77.19-18.83,112-25,8.55-5.77,13.76-7.53,17-8,.7-.1,2.95-.39,3-1,.06-.81-3.71-1.7-5-2-15.29-3.61-182.81,45.62-231,58-3.82,1-6.85,1.72-8,2Z" transform="translate(0 0)"/>
  <path id="TopBar-2" data-name="TopBar" class="cls-2" d="M260,113.78c-35.59,13.14-75.08,25.93-118.22,37.32-39.72,10.48-77.3,18.38-112.14,24.34-8.59,5.72-13.81,7.45-17,7.9-.7.1-3,.37-3,1-.06.8,3.71,1.71,5,2,15.27,3.7,183.08-44.55,231.34-56.65,3.82-.95,6.85-1.68,8-1.95Z" transform="translate(0 0)"/>
</svg>
